<?xml version="1.0" standalone="no"?>
<!DOCTYPE svg PUBLIC "-//W3C//DTD SVG 20010904//EN"
 "http://www.w3.org/TR/2001/REC-SVG-20010904/DTD/svg10.dtd">
<svg version="1.0" xmlns="http://www.w3.org/2000/svg"
 width="300.000000pt" height="300.000000pt" viewBox="0 0 300.000000 300.000000"
 preserveAspectRatio="xMidYMid meet">
<metadata>
Created by potrace 1.11, written by Peter Selinger 2001-2013
</metadata>
<g transform="translate(0.000000,300.000000) scale(0.100000,-0.100000)"
fill="#000000" stroke="none">
<path d="M1315 2929 c-22 -4 -53 -9 -70 -12 -154 -25 -391 -118 -507 -199 -14
-10 -31 -18 -36 -18 -6 0 -12 -3 -14 -7 -1 -5 -30 -28 -63 -53 -117 -86 -293
-281 -356 -393 -92 -165 -161 -350 -183 -497 -3 -19 -8 -52 -11 -72 -20 -124
-7 -376 27 -503 5 -22 11 -47 13 -55 15 -77 109 -294 167 -385 30 -47 139
-186 177 -224 40 -42 144 -134 176 -156 16 -11 41 -30 56 -42 15 -13 30 -23
34 -23 4 0 20 -9 35 -20 47 -34 200 -106 283 -134 261 -87 564 -96 827 -26 84
23 197 64 252 91 l37 19 -39 147 c-81 313 -198 594 -338 822 -29 45 -52 86
-52 91 0 5 -3 10 -7 12 -5 2 -29 35 -54 73 -52 79 -145 198 -159 203 -19 7
-129 -61 -180 -111 -102 -100 -142 -191 -146 -337 -2 -63 2 -108 11 -135 8
-22 15 -44 15 -50 0 -9 -193 -95 -213 -95 -3 0 -17 33 -29 72 -19 61 -23 95
-23 203 0 115 4 139 28 210 29 85 86 192 130 241 14 16 36 41 49 55 28 32 141
116 168 124 11 4 20 13 20 21 0 8 -3 13 -7 11 -5 -3 -31 -7 -60 -11 -99 -12
-238 -71 -328 -140 -156 -120 -262 -312 -279 -505 -3 -29 -7 -55 -10 -58 -4
-4 -137 -7 -209 -4 l-27 1 6 68 c23 282 162 532 389 699 70 51 199 123 222
123 16 0 25 16 10 18 -83 12 -192 9 -238 -4 -71 -21 -140 -57 -182 -94 l-34
-29 -81 80 c-45 45 -82 84 -82 88 0 9 43 49 90 83 69 50 165 90 277 115 37 9
207 9 258 2 91 -15 236 -79 310 -138 28 -22 30 -22 40 -6 111 194 255 311 455
370 98 29 290 28 388 -3 39 -12 72 -25 72 -28 0 -20 -85 -214 -94 -214 -6 0
-33 7 -60 15 -106 32 -276 4 -376 -62 -63 -42 -130 -111 -159 -166 -28 -52
-27 -54 13 -19 75 65 224 114 323 106 111 -10 220 -53 294 -116 l26 -22 -84
-83 c-84 -84 -96 -92 -109 -72 -14 23 -96 50 -149 50 -68 0 -127 -25 -183 -80
l-43 -41 33 -43 c69 -88 86 -112 136 -186 201 -298 353 -637 457 -1016 28
-103 24 -96 48 -84 22 12 207 194 244 240 44 56 131 198 170 279 37 78 93 241
107 315 4 17 8 41 11 54 36 190 19 445 -44 661 -93 322 -323 620 -620 805 -89
55 -289 145 -353 159 -13 3 -41 10 -63 16 -22 5 -58 13 -80 16 -22 3 -60 10
-85 14 -54 10 -309 10 -365 -1z"/>
</g>
</svg>
